<?xml version="1.0" standalone="no"?>
<!DOCTYPE svg PUBLIC "-//W3C//DTD SVG 20010904//EN"
 "http://www.w3.org/TR/2001/REC-SVG-20010904/DTD/svg10.dtd">
<svg version="1.0" xmlns="http://www.w3.org/2000/svg"
 width="390.000000pt" height="151.000000pt" viewBox="0 0 390.000000 151.000000"
 preserveAspectRatio="xMidYMid meet">

<g transform="translate(0.000000,151.000000) scale(0.100000,-0.100000)"
fill="#000000" stroke="none">
<path d="M800 994 c-6 -14 -10 -124 -10 -245 l0 -219 45 0 45 0 0 173 0 172
173 -178 c94 -98 179 -178 187 -177 37 1 40 19 40 257 l0 233 -40 0 -40 0 -1
-172 0 -173 -173 178 c-181 186 -207 203 -226 151z"/>
<path d="M82 773 l3 -238 218 -3 217 -2 0 40 0 40 -180 0 -180 0 0 200 0 200
-40 0 -40 0 2 -237z"/>
<path d="M600 770 l0 -240 40 0 40 0 0 240 0 240 -40 0 -40 0 0 -240z"/>
<path d="M1390 770 l0 -240 45 0 45 0 0 240 0 240 -45 0 -45 0 0 -240z"/>
<path d="M1680 910 c-82 -89 -96 -100 -126 -100 -33 0 -34 -1 -34 -40 0 -39 1
-40 34 -40 31 0 44 -11 127 -100 l92 -100 61 0 61 0 -120 120 -120 120 120
120 120 120 -61 0 -61 0 -93 -100z"/>
<path d="M2200 770 l0 -240 40 0 40 0 0 100 0 100 160 0 160 0 0 -100 0 -100
45 0 45 0 0 240 0 240 -45 0 -45 0 0 -100 0 -100 -160 0 -160 0 0 100 0 100
-40 0 -40 0 0 -240z"/>
<path d="M2935 996 c-46 -20 -94 -64 -118 -110 -19 -36 -22 -60 -25 -198 l-4
-158 41 0 41 0 0 60 0 60 165 0 165 0 0 -60 0 -60 40 0 40 0 0 228 c0 164 -3
231 -12 240 -17 17 -293 16 -333 -2z m265 -166 l0 -100 -165 0 -165 0 0 34 c0
67 37 126 95 152 18 8 70 13 133 14 l102 0 0 -100z"/>
<path d="M3395 988 c-3 -13 -4 -120 -3 -238 l3 -215 209 -3 c234 -3 245 0 266
63 18 54 5 119 -32 160 -30 35 -30 35 -14 75 30 74 13 144 -39 168 -17 8 -88
12 -205 12 -178 0 -180 0 -185 -22z m355 -97 c0 -63 -31 -81 -141 -81 l-89 0
0 -40 0 -40 109 0 c100 0 112 -2 136 -23 18 -15 27 -33 28 -57 l2 -35 -162 -3
-163 -2 0 160 0 160 140 0 140 0 0 -39z"/>
</g>
</svg>
