<?xml version="1.0" standalone="no"?>
<!DOCTYPE svg PUBLIC "-//W3C//DTD SVG 20010904//EN"
 "http://www.w3.org/TR/2001/REC-SVG-20010904/DTD/svg10.dtd">
<svg version="1.0" xmlns="http://www.w3.org/2000/svg"
 width="129.000000pt" height="152.000000pt" viewBox="0 0 129.000000 152.000000"
 preserveAspectRatio="xMidYMid meet">

<g transform="translate(0.000000,152.000000) scale(0.100000,-0.100000)"
fill="#000000" stroke="none">
<path d="M825 1510 c-39 -8 -83 -37 -97 -63 -48 -91 -16 -187 77 -222 60 -23
105 -14 154 33 51 49 61 101 33 165 -30 67 -97 102 -167 87z"/>
<path d="M205 1498 c-59 -32 -100 -97 -132 -209 -15 -54 -18 -102 -18 -304 0
-250 7 -324 51 -535 48 -233 115 -390 165 -390 106 0 248 647 224 1020 -15
236 -64 367 -157 416 -32 17 -105 18 -133 2z"/>
<path d="M804 1048 c-65 -78 -131 -265 -158 -451 -38 -255 -3 -443 96 -517 29
-22 43 -25 113 -25 68 0 85 4 112 23 120 85 147 357 68 672 -49 194 -124 330
-181 330 -13 0 -34 -14 -50 -32z"/>
</g>
</svg>
